<?xml version="1.0" encoding="utf-8"?>
<!-- Svg Vector Icons : http://www.onlinewebfonts.com/icon -->
<!DOCTYPE svg PUBLIC "-//W3C//DTD SVG 1.1//EN" "http://www.w3.org/Graphics/SVG/1.1/DTD/svg11.dtd">
<svg version="1.1" xmlns="http://www.w3.org/2000/svg" xmlns:xlink="http://www.w3.org/1999/xlink" x="0px" y="0px" viewBox="0 0 256 256" enable-background="new 0 0 256 256" xml:space="preserve">
<metadata> Svg Vector Icons : http://www.onlinewebfonts.com/icon </metadata>
<g><g><g><path fill="#000000" d="M45,11.1c-3.7,1.3-6.3,2.9-9,6c-2.4,2.7-3.5,4.6-4.5,8.2c-0.7,2.3-0.7,12-0.6,104L31,230.7l1.8,3.5c1.8,3.7,5.8,7.9,9,9.5c4.8,2.5,0,2.3,87.2,2.3l80.5-0.1l2.7-1.1c5.1-2.1,9.9-6.9,11.9-11.9l1.1-2.7l0.1-65.7c0.1-48.1,0-66.6-0.4-69.1c-1.2-7.2-5.5-17-9.6-21.7c-1.2-1.3-13.9-13.9-28.4-28c-18.6-18.2-27.2-26.2-29.6-27.8c-3.9-2.5-9.9-5.2-14.9-6.6c-3.6-1-3.8-1-49-1.1L48,10L45,11.1z M133.5,52.2l0.2,32.3l1.6,3.2c2.1,4.2,5.7,7.9,10,10l3.2,1.6l33.4,0.2l33.4,0.2v64.8v64.8l-1,1.8c-1.2,2.1-2.1,3-4.3,4.2c-1.6,0.8-4.3,0.9-82.1,0.9H47.6l-1.9-1c-2.6-1.4-4.2-3.6-4.7-6.7c-0.3-1.6-0.4-36.7-0.4-102l0.1-99.6l1-1.8c1.2-2.4,3.7-4.3,6.2-4.8c1.1-0.2,20.8-0.4,43.8-0.3l41.7,0L133.5,52.2z M148.2,23.9c4.6,2.3,4.5,2.2,36.8,33.7c12.7,12.4,23.7,23.3,24.3,24.3c1.2,1.8,4,7.2,4,7.7c0,0.1-14,0.2-31.1,0.2c-22.2,0-31.5-0.1-32.6-0.6c-2.4-0.8-4-2.1-5.2-4.2l-1-1.9l-0.1-30.6c-0.1-24.1,0-30.5,0.5-30.5C144.1,22,146.1,22.9,148.2,23.9z"/></g></g></g>
</svg>